<mxfile host="app.diagrams.net" agent="Mozilla/5.0 (X11; Linux x86_64; rv:142.0) Gecko/20100101 Firefox/142.0" version="28.1.2">
  <diagram name="Page-1" id="2l_jHQsMw_nlB7P-kN3d">
    <mxGraphModel dx="2416" dy="1327" grid="1" gridSize="10" guides="1" tooltips="1" connect="1" arrows="1" fold="1" page="1" pageScale="1" pageWidth="1700" pageHeight="1100" math="0" shadow="0">
      <root>
        <mxCell id="0" />
        <mxCell id="1" parent="0" />
        <mxCell id="CJNbvoDMB4cZCmzuY-xy-2" style="edgeStyle=orthogonalEdgeStyle;rounded=0;orthogonalLoop=1;jettySize=auto;html=1;exitX=0.5;exitY=1;exitDx=0;exitDy=0;" edge="1" parent="1" source="qBCkmrOF__fB7yVJp3Rr-79" target="qBCkmrOF__fB7yVJp3Rr-59">
          <mxGeometry relative="1" as="geometry" />
        </mxCell>
        <object label="" subnet="192.168.1" id="qBCkmrOF__fB7yVJp3Rr-79">
          <mxCell style="rounded=1;whiteSpace=wrap;html=1;container=1;collapsible=0;" parent="1" vertex="1">
            <mxGeometry x="70" y="750" width="700" height="130" as="geometry" />
          </mxCell>
        </object>
        <mxCell id="CJNbvoDMB4cZCmzuY-xy-39" value="" style="group" vertex="1" connectable="0" parent="qBCkmrOF__fB7yVJp3Rr-79">
          <mxGeometry x="102.73142857142855" y="30.00199584200743" width="494.5435714285715" height="35.68564738616655" as="geometry" />
        </mxCell>
        <object label="&lt;div&gt;Living Room TV&lt;/div&gt;&lt;div&gt;%subnet%.x&lt;/div&gt;" placeholders="1" id="qBCkmrOF__fB7yVJp3Rr-73">
          <mxCell style="sketch=0;outlineConnect=0;fontColor=#232F3E;gradientColor=none;fillColor=#7AA116;strokeColor=none;dashed=0;verticalLabelPosition=bottom;verticalAlign=top;align=center;html=1;fontSize=12;fontStyle=0;aspect=fixed;pointerEvents=1;shape=mxgraph.aws4.firetv;" parent="CJNbvoDMB4cZCmzuY-xy-39" vertex="1">
            <mxGeometry x="448.3928571428573" y="2.3080041579926274" width="46.15071428571429" height="32.54464285714286" as="geometry" />
          </mxCell>
        </object>
        <object label="&lt;div&gt;Bedroom TV&lt;/div&gt;&lt;div&gt;%subnet%.x&lt;/div&gt;" placeholders="1" id="qBCkmrOF__fB7yVJp3Rr-71">
          <mxCell style="sketch=0;outlineConnect=0;fontColor=#232F3E;gradientColor=none;fillColor=#7AA116;strokeColor=none;dashed=0;verticalLabelPosition=bottom;verticalAlign=top;align=center;html=1;fontSize=12;fontStyle=0;aspect=fixed;pointerEvents=1;shape=mxgraph.aws4.firetv;" parent="CJNbvoDMB4cZCmzuY-xy-39" vertex="1">
            <mxGeometry x="361.60714285714283" y="0.1880041579927365" width="48.08892857142857" height="33.90428571428571" as="geometry" />
          </mxCell>
        </object>
        <object label="&lt;div&gt;IOS&lt;/div&gt;&lt;div&gt;%subnet%.x&lt;/div&gt;" placeholders="1" id="qBCkmrOF__fB7yVJp3Rr-55">
          <mxCell style="sketch=0;aspect=fixed;pointerEvents=1;shadow=0;dashed=0;html=1;strokeColor=none;labelPosition=center;verticalLabelPosition=bottom;verticalAlign=top;align=center;fillColor=#00188D;shape=mxgraph.azure.mobile" parent="CJNbvoDMB4cZCmzuY-xy-39" vertex="1">
            <mxGeometry x="294.10714285714283" y="1.419119346141315" width="23.986569628017662" height="34.266528040025236" as="geometry" />
          </mxCell>
        </object>
        <object label="&lt;div&gt;Android&lt;/div&gt;&lt;div&gt;%subnet%.x&lt;/div&gt;" placeholders="1" id="qBCkmrOF__fB7yVJp3Rr-54">
          <mxCell style="sketch=0;aspect=fixed;pointerEvents=1;shadow=0;dashed=0;html=1;strokeColor=none;labelPosition=center;verticalLabelPosition=bottom;verticalAlign=top;align=center;fillColor=#00188D;shape=mxgraph.mscae.enterprise.android_phone" parent="CJNbvoDMB4cZCmzuY-xy-39" vertex="1">
            <mxGeometry x="207.3214285714286" width="20.559916824015144" height="34.266528040025236" as="geometry" />
          </mxCell>
        </object>
        <object label="Brooke&lt;br&gt;%subnet%.x" placeholders="1" id="qBCkmrOF__fB7yVJp3Rr-81">
          <mxCell style="image;sketch=0;aspect=fixed;html=1;points=[];align=center;fontSize=12;image=img/lib/mscae/VM_Windows_Non_Azure.svg;" parent="CJNbvoDMB4cZCmzuY-xy-39" vertex="1">
            <mxGeometry x="106.07142857142861" y="2.839399382897227" width="34.266528040025236" height="31.52520579682322" as="geometry" />
          </mxCell>
        </object>
        <object label="Archie&lt;br&gt;%subnet%.166" placeholders="1" id="qBCkmrOF__fB7yVJp3Rr-80">
          <mxCell style="image;sketch=0;aspect=fixed;html=1;points=[];align=center;fontSize=12;image=img/lib/mscae/VM_Linux.svg;" parent="CJNbvoDMB4cZCmzuY-xy-39" vertex="1">
            <mxGeometry y="2.839399382897227" width="34.266528040025236" height="31.52520579682322" as="geometry" />
          </mxCell>
        </object>
        <mxCell id="qBCkmrOF__fB7yVJp3Rr-59" value="" style="ellipse;whiteSpace=wrap;html=1;container=1;collapsible=0;" parent="1" vertex="1">
          <mxGeometry x="340" y="930" width="160" height="120" as="geometry" />
        </mxCell>
        <mxCell id="qBCkmrOF__fB7yVJp3Rr-56" value="&lt;div&gt;Swiss VPN&lt;/div&gt;&lt;div&gt;(83.228.206.6)&lt;/div&gt;" style="image;sketch=0;aspect=fixed;html=1;points=[];align=center;fontSize=12;image=img/lib/mscae/Virtual_WANs.svg;" parent="qBCkmrOF__fB7yVJp3Rr-59" vertex="1">
          <mxGeometry x="55" y="15" width="50" height="50" as="geometry" />
        </mxCell>
        <object label="VLAN30 - Media (10.30.30.1)" placeholders="1" subnet="10.30.30." id="qBCkmrOF__fB7yVJp3Rr-13">
          <mxCell style="swimlane;whiteSpace=wrap;html=1;fillColor=#d0cee2;strokeColor=#56517e;rounded=1;collapsible=0;" parent="1" vertex="1">
            <mxGeometry x="1470" y="180" width="200" height="580" as="geometry" />
          </mxCell>
        </object>
        <object label="&lt;div&gt;107-Radarr&lt;/div&gt;&lt;div&gt;(%subnet%21)&lt;/div&gt;" placeholders="1" id="qBCkmrOF__fB7yVJp3Rr-26">
          <mxCell style="rounded=0;whiteSpace=wrap;html=1;fillColor=#d0cee2;strokeColor=#56517e;" parent="qBCkmrOF__fB7yVJp3Rr-13" vertex="1">
            <mxGeometry x="40" y="30" width="120" height="60" as="geometry" />
          </mxCell>
        </object>
        <object label="&lt;div&gt;108-Sonarr&lt;/div&gt;&lt;div&gt;(%subnet%22)&lt;/div&gt;" placeholders="1" id="qBCkmrOF__fB7yVJp3Rr-27">
          <mxCell style="rounded=0;whiteSpace=wrap;html=1;fillColor=#d0cee2;strokeColor=#56517e;" parent="qBCkmrOF__fB7yVJp3Rr-13" vertex="1">
            <mxGeometry x="40" y="90" width="120" height="60" as="geometry" />
          </mxCell>
        </object>
        <object label="&lt;div&gt;109-Readarr&lt;/div&gt;&lt;div&gt;(%subnet%23)&lt;/div&gt;" placeholders="1" id="qBCkmrOF__fB7yVJp3Rr-28">
          <mxCell style="rounded=0;whiteSpace=wrap;html=1;fillColor=#d0cee2;strokeColor=#56517e;" parent="qBCkmrOF__fB7yVJp3Rr-13" vertex="1">
            <mxGeometry x="40" y="150" width="120" height="60" as="geometry" />
          </mxCell>
        </object>
        <object label="&lt;div&gt;110-Lidarr&lt;/div&gt;&lt;div&gt;(%subnet%24)&lt;/div&gt;" placeholders="1" id="qBCkmrOF__fB7yVJp3Rr-29">
          <mxCell style="rounded=0;whiteSpace=wrap;html=1;fillColor=#d0cee2;strokeColor=#56517e;" parent="qBCkmrOF__fB7yVJp3Rr-13" vertex="1">
            <mxGeometry x="40" y="210" width="120" height="60" as="geometry" />
          </mxCell>
        </object>
        <object label="&lt;div&gt;111-Sabnzbd&lt;/div&gt;&lt;div&gt;(%subnet%25)&lt;/div&gt;" placeholders="1" id="qBCkmrOF__fB7yVJp3Rr-30">
          <mxCell style="rounded=0;whiteSpace=wrap;html=1;fillColor=#d0cee2;strokeColor=#56517e;" parent="qBCkmrOF__fB7yVJp3Rr-13" vertex="1">
            <mxGeometry x="40" y="270" width="120" height="60" as="geometry" />
          </mxCell>
        </object>
        <object label="&lt;div&gt;119-Calibre-web&lt;/div&gt;&lt;div&gt;(%subnet%26)&lt;/div&gt;" placeholders="1" id="qBCkmrOF__fB7yVJp3Rr-35">
          <mxCell style="rounded=0;whiteSpace=wrap;html=1;fillColor=#d0cee2;strokeColor=#56517e;" parent="qBCkmrOF__fB7yVJp3Rr-13" vertex="1">
            <mxGeometry x="40" y="330" width="120" height="60" as="geometry" />
          </mxCell>
        </object>
        <object label="&lt;div&gt;120-Audiobookshelf&lt;/div&gt;&lt;div&gt;(%subnet%27)&lt;/div&gt;" placeholders="1" id="qBCkmrOF__fB7yVJp3Rr-36">
          <mxCell style="rounded=0;whiteSpace=wrap;html=1;fillColor=#d0cee2;strokeColor=#56517e;" parent="qBCkmrOF__fB7yVJp3Rr-13" vertex="1">
            <mxGeometry x="40" y="390" width="120" height="60" as="geometry" />
          </mxCell>
        </object>
        <object label="&lt;div&gt;123-Jackett&lt;/div&gt;&lt;div&gt;(%subnet%28)&lt;/div&gt;" placeholders="1" id="qBCkmrOF__fB7yVJp3Rr-37">
          <mxCell style="rounded=0;whiteSpace=wrap;html=1;fillColor=#d0cee2;strokeColor=#56517e;" parent="qBCkmrOF__fB7yVJp3Rr-13" vertex="1">
            <mxGeometry x="40" y="450" width="120" height="60" as="geometry" />
          </mxCell>
        </object>
        <object label="&lt;div&gt;125-Qbittorrent&lt;/div&gt;&lt;div&gt;(%subnet%29)&lt;/div&gt;" placeholders="1" id="qBCkmrOF__fB7yVJp3Rr-38">
          <mxCell style="rounded=0;whiteSpace=wrap;html=1;fillColor=#d0cee2;strokeColor=#56517e;" parent="qBCkmrOF__fB7yVJp3Rr-13" vertex="1">
            <mxGeometry x="40" y="510" width="120" height="60" as="geometry" />
          </mxCell>
        </object>
        <mxCell id="CJNbvoDMB4cZCmzuY-xy-11" style="edgeStyle=orthogonalEdgeStyle;rounded=0;orthogonalLoop=1;jettySize=auto;html=1;exitX=1;exitY=0.5;exitDx=0;exitDy=0;entryX=0.5;entryY=0;entryDx=0;entryDy=0;" edge="1" parent="1" source="qBCkmrOF__fB7yVJp3Rr-2" target="qBCkmrOF__fB7yVJp3Rr-13">
          <mxGeometry relative="1" as="geometry">
            <Array as="points">
              <mxPoint x="970" y="523" />
              <mxPoint x="970" y="160" />
              <mxPoint x="1570" y="160" />
            </Array>
          </mxGeometry>
        </mxCell>
        <mxCell id="CJNbvoDMB4cZCmzuY-xy-12" style="edgeStyle=orthogonalEdgeStyle;rounded=0;orthogonalLoop=1;jettySize=auto;html=1;exitX=1;exitY=0.5;exitDx=0;exitDy=0;entryX=0.5;entryY=0;entryDx=0;entryDy=0;" edge="1" parent="1" source="qBCkmrOF__fB7yVJp3Rr-2" target="qBCkmrOF__fB7yVJp3Rr-12">
          <mxGeometry relative="1" as="geometry">
            <Array as="points">
              <mxPoint x="970" y="523" />
              <mxPoint x="970" y="160" />
              <mxPoint x="1350" y="160" />
            </Array>
          </mxGeometry>
        </mxCell>
        <mxCell id="CJNbvoDMB4cZCmzuY-xy-13" style="edgeStyle=orthogonalEdgeStyle;rounded=0;orthogonalLoop=1;jettySize=auto;html=1;exitX=1;exitY=0.5;exitDx=0;exitDy=0;entryX=0.5;entryY=0;entryDx=0;entryDy=0;" edge="1" parent="1" source="qBCkmrOF__fB7yVJp3Rr-2" target="qBCkmrOF__fB7yVJp3Rr-3">
          <mxGeometry relative="1" as="geometry">
            <Array as="points">
              <mxPoint x="970" y="523" />
              <mxPoint x="970" y="160" />
              <mxPoint x="1130" y="160" />
            </Array>
          </mxGeometry>
        </mxCell>
        <mxCell id="CJNbvoDMB4cZCmzuY-xy-20" style="edgeStyle=orthogonalEdgeStyle;rounded=0;orthogonalLoop=1;jettySize=auto;html=1;exitX=1;exitY=0.5;exitDx=0;exitDy=0;entryX=0;entryY=0.5;entryDx=0;entryDy=0;" edge="1" parent="1" source="qBCkmrOF__fB7yVJp3Rr-2" target="qBCkmrOF__fB7yVJp3Rr-40">
          <mxGeometry relative="1" as="geometry">
            <Array as="points">
              <mxPoint x="970" y="523" />
              <mxPoint x="970" y="910" />
            </Array>
          </mxGeometry>
        </mxCell>
        <mxCell id="qBCkmrOF__fB7yVJp3Rr-2" value="OPNSense&lt;br&gt;&lt;br&gt;&lt;div&gt;WAN:&amp;nbsp;&lt;/div&gt;&lt;div&gt;192.168.1.249&lt;/div&gt;&lt;div&gt;&lt;br&gt;&lt;/div&gt;&lt;div&gt;VLAN10:&amp;nbsp;&lt;/div&gt;&lt;div&gt;10.10.10.1&lt;/div&gt;&lt;div&gt;&lt;br&gt;&lt;/div&gt;&lt;div&gt;VLAN20:&lt;/div&gt;&lt;div&gt;10.20.20.1&lt;/div&gt;&lt;div&gt;&lt;br&gt;&lt;/div&gt;&lt;div&gt;VLAN30:&lt;/div&gt;&lt;div&gt;10.30.30.1&lt;/div&gt;&lt;div&gt;&lt;br&gt;&lt;/div&gt;&lt;div&gt;VLAN40:&lt;/div&gt;&lt;div&gt;10.40.40.1&lt;/div&gt;&lt;div&gt;&lt;br&gt;&lt;/div&gt;&lt;div&gt;VLAN50:&lt;/div&gt;&lt;div&gt;10.50.50.1&lt;/div&gt;" style="rounded=1;whiteSpace=wrap;html=1;verticalAlign=top;" parent="1" vertex="1">
          <mxGeometry x="460" y="285" width="160" height="415" as="geometry" />
        </mxCell>
        <object label="VLAN10 - Infra (10.10.10.1)&amp;nbsp;" placeholders="1" subnet="10.10.10." id="qBCkmrOF__fB7yVJp3Rr-3">
          <mxCell style="swimlane;whiteSpace=wrap;html=1;fillColor=#1ba1e2;fontColor=#ffffff;strokeColor=#006EAF;rounded=1;collapsible=0;" parent="1" vertex="1">
            <mxGeometry x="1030" y="180" width="200" height="580" as="geometry">
              <mxRectangle x="60" y="360" width="130" height="30" as="alternateBounds" />
            </mxGeometry>
          </mxCell>
        </object>
        <object label="&lt;div&gt;102-Pi-hole&amp;nbsp;&lt;/div&gt;&lt;div&gt;(%subnet%3)&lt;/div&gt;" placeholders="1" id="qBCkmrOF__fB7yVJp3Rr-5">
          <mxCell style="rounded=0;whiteSpace=wrap;html=1;fillColor=#0050ef;fontColor=#ffffff;strokeColor=#001DBC;" parent="qBCkmrOF__fB7yVJp3Rr-3" vertex="1">
            <mxGeometry x="40" y="90" width="120" height="60" as="geometry" />
          </mxCell>
        </object>
        <object label="&lt;div&gt;103-DNS-updater&lt;/div&gt;&lt;div&gt;(%subnet%4)&lt;/div&gt;" placeholders="1" id="qBCkmrOF__fB7yVJp3Rr-6">
          <mxCell style="rounded=0;whiteSpace=wrap;html=1;fillColor=#0050ef;fontColor=#ffffff;strokeColor=#001DBC;gradientColor=none;" parent="qBCkmrOF__fB7yVJp3Rr-3" vertex="1">
            <mxGeometry x="40" y="150" width="120" height="60" as="geometry" />
          </mxCell>
        </object>
        <object label="&lt;div&gt;101-Cloudflare&lt;/div&gt;&lt;div&gt;(%subnet%5)&lt;/div&gt;" placeholders="1" id="qBCkmrOF__fB7yVJp3Rr-8">
          <mxCell style="rounded=0;whiteSpace=wrap;html=1;fillColor=light-dark(#E51400,#CC0000);strokeColor=#B20000;fontColor=#ffffff;" parent="qBCkmrOF__fB7yVJp3Rr-3" vertex="1">
            <mxGeometry x="40" y="210" width="120" height="60" as="geometry" />
          </mxCell>
        </object>
        <object label="&lt;div&gt;Proxmox&lt;/div&gt;&lt;div&gt;(%subnet%10)&lt;/div&gt;" placeholders="1" id="qBCkmrOF__fB7yVJp3Rr-9">
          <mxCell style="rounded=0;whiteSpace=wrap;html=1;fillColor=#0050ef;fontColor=#ffffff;strokeColor=#001DBC;" parent="qBCkmrOF__fB7yVJp3Rr-3" vertex="1">
            <mxGeometry x="40" y="330" width="120" height="60" as="geometry" />
          </mxCell>
        </object>
        <object label="&lt;div&gt;114-Cloudflared&lt;/div&gt;&lt;div&gt;(%subnet%6)&lt;/div&gt;" placeholders="1" id="qBCkmrOF__fB7yVJp3Rr-10">
          <mxCell style="rounded=0;whiteSpace=wrap;html=1;fillColor=#0050ef;fontColor=#ffffff;strokeColor=#001DBC;" parent="qBCkmrOF__fB7yVJp3Rr-3" vertex="1">
            <mxGeometry x="40" y="270" width="120" height="60" as="geometry" />
          </mxCell>
        </object>
        <object label="&lt;div&gt;PBS&lt;/div&gt;&lt;div&gt;(%subnet%11)&lt;/div&gt;" placeholders="1" id="qBCkmrOF__fB7yVJp3Rr-11">
          <mxCell style="rounded=0;whiteSpace=wrap;html=1;fillColor=#0050ef;fontColor=#ffffff;strokeColor=#001DBC;" parent="qBCkmrOF__fB7yVJp3Rr-3" vertex="1">
            <mxGeometry x="40" y="390" width="120" height="60" as="geometry" />
          </mxCell>
        </object>
        <object label="&lt;div&gt;105-NGINX&lt;/div&gt;&lt;div&gt;(%subnet%2)&lt;/div&gt;" placeholders="1" id="qBCkmrOF__fB7yVJp3Rr-4">
          <mxCell style="rounded=0;whiteSpace=wrap;html=1;fillColor=light-dark(#0050EF,#CC0000);fontColor=#ffffff;strokeColor=#001DBC;" parent="qBCkmrOF__fB7yVJp3Rr-3" vertex="1">
            <mxGeometry x="40" y="30" width="120" height="60" as="geometry" />
          </mxCell>
        </object>
        <object label="VLAN20 - Core (10.20.20.1)" placeholders="1" subnet="10.20.20." id="qBCkmrOF__fB7yVJp3Rr-12">
          <mxCell style="swimlane;whiteSpace=wrap;html=1;fillColor=#60a917;fontColor=#ffffff;strokeColor=#2D7600;rounded=1;collapsible=0;" parent="1" vertex="1">
            <mxGeometry x="1250" y="180" width="200" height="580" as="geometry" />
          </mxCell>
        </object>
        <object label="&lt;div&gt;112-Vaultwarden&lt;/div&gt;&lt;div&gt;(%subnet%13)&lt;/div&gt;" placeholders="1" id="qBCkmrOF__fB7yVJp3Rr-17">
          <mxCell style="rounded=0;whiteSpace=wrap;html=1;fillColor=#008a00;fontColor=#ffffff;strokeColor=#005700;" parent="qBCkmrOF__fB7yVJp3Rr-12" vertex="1">
            <mxGeometry x="40" y="30" width="120" height="60" as="geometry" />
          </mxCell>
        </object>
        <object label="&lt;div&gt;113-Wiki JS&lt;/div&gt;&lt;div&gt;(%subnet%14)&lt;/div&gt;" placeholders="1" id="qBCkmrOF__fB7yVJp3Rr-18">
          <mxCell style="rounded=0;whiteSpace=wrap;html=1;fillColor=#008a00;fontColor=#ffffff;strokeColor=#005700;" parent="qBCkmrOF__fB7yVJp3Rr-12" vertex="1">
            <mxGeometry x="40" y="90" width="120" height="60" as="geometry" />
          </mxCell>
        </object>
        <object label="&lt;div&gt;115-Golf API&lt;/div&gt;&lt;div&gt;(%subnet%15)&lt;/div&gt;" placeholders="1" id="qBCkmrOF__fB7yVJp3Rr-19">
          <mxCell style="rounded=0;whiteSpace=wrap;html=1;fillColor=#008a00;fontColor=#ffffff;strokeColor=#005700;" parent="qBCkmrOF__fB7yVJp3Rr-12" vertex="1">
            <mxGeometry x="40" y="150" width="120" height="60" as="geometry" />
          </mxCell>
        </object>
        <object label="&lt;div&gt;116-PostgresSQL&lt;/div&gt;&lt;div&gt;(%subnet%16)&lt;/div&gt;" placeholders="1" id="qBCkmrOF__fB7yVJp3Rr-20">
          <mxCell style="rounded=0;whiteSpace=wrap;html=1;fillColor=#008a00;fontColor=#ffffff;strokeColor=#005700;" parent="qBCkmrOF__fB7yVJp3Rr-12" vertex="1">
            <mxGeometry x="40" y="210" width="120" height="60" as="geometry" />
          </mxCell>
        </object>
        <object label="&lt;div&gt;118-Matrix&lt;/div&gt;&lt;div&gt;(%subnet%17)&lt;/div&gt;" placeholders="1" id="qBCkmrOF__fB7yVJp3Rr-22">
          <mxCell style="rounded=0;whiteSpace=wrap;html=1;fillColor=#008a00;fontColor=#ffffff;strokeColor=#005700;" parent="qBCkmrOF__fB7yVJp3Rr-12" vertex="1">
            <mxGeometry x="40" y="270" width="120" height="60" as="geometry" />
          </mxCell>
        </object>
        <object label="&lt;div&gt;121-Docker&lt;/div&gt;&lt;div&gt;(%subnet%18)&lt;/div&gt;" placeholders="1" id="qBCkmrOF__fB7yVJp3Rr-23">
          <mxCell style="rounded=0;whiteSpace=wrap;html=1;fillColor=#008a00;fontColor=#ffffff;strokeColor=#005700;" parent="qBCkmrOF__fB7yVJp3Rr-12" vertex="1">
            <mxGeometry x="40" y="330" width="120" height="60" as="geometry" />
          </mxCell>
        </object>
        <object label="&lt;div&gt;124-Home Assistant&lt;/div&gt;&lt;div&gt;(%subnet%19)&lt;/div&gt;" placeholders="1" id="qBCkmrOF__fB7yVJp3Rr-32">
          <mxCell style="rounded=0;whiteSpace=wrap;html=1;fillColor=#008a00;fontColor=#ffffff;strokeColor=#005700;" parent="qBCkmrOF__fB7yVJp3Rr-12" vertex="1">
            <mxGeometry x="40" y="390" width="120" height="60" as="geometry" />
          </mxCell>
        </object>
        <object label="&lt;div&gt;128-N8N&lt;/div&gt;&lt;div&gt;(%subnet%20)&lt;/div&gt;" placeholders="1" id="qBCkmrOF__fB7yVJp3Rr-34">
          <mxCell style="rounded=0;whiteSpace=wrap;html=1;fillColor=#008a00;fontColor=#ffffff;strokeColor=#005700;" parent="qBCkmrOF__fB7yVJp3Rr-12" vertex="1">
            <mxGeometry x="40" y="450" width="120" height="60" as="geometry" />
          </mxCell>
        </object>
        <object label="VLAN40 - Cloudflared (10.40.40.1)" placeholders="1" subnet="10.40.40." id="qBCkmrOF__fB7yVJp3Rr-40">
          <mxCell style="swimlane;whiteSpace=wrap;html=1;rounded=1;collapsible=0;fillColor=#fad9d5;strokeColor=#ae4132;" parent="1" vertex="1">
            <mxGeometry x="1030" y="770" width="200" height="280" as="geometry" />
          </mxCell>
        </object>
        <object label="&lt;div&gt;104-Jellyfin&lt;/div&gt;&lt;div&gt;(%subnet%7)&lt;/div&gt;" placeholders="1" id="qBCkmrOF__fB7yVJp3Rr-24">
          <mxCell style="rounded=0;whiteSpace=wrap;html=1;fillColor=#fad9d5;strokeColor=#ae4132;" parent="qBCkmrOF__fB7yVJp3Rr-40" vertex="1">
            <mxGeometry x="40" y="30" width="120" height="60" as="geometry" />
          </mxCell>
        </object>
        <object label="&lt;div&gt;106-Jellyseer&lt;/div&gt;&lt;div&gt;(%subnet%8)&lt;/div&gt;" placeholders="1" id="qBCkmrOF__fB7yVJp3Rr-25">
          <mxCell style="rounded=0;whiteSpace=wrap;html=1;fillColor=#fad9d5;strokeColor=#ae4132;" parent="qBCkmrOF__fB7yVJp3Rr-40" vertex="1">
            <mxGeometry x="40" y="90" width="120" height="60" as="geometry" />
          </mxCell>
        </object>
        <object label="&lt;div&gt;127-OpenWebUI&lt;/div&gt;&lt;div&gt;(%subnet%9)&lt;/div&gt;" placeholders="1" id="qBCkmrOF__fB7yVJp3Rr-33">
          <mxCell style="rounded=0;whiteSpace=wrap;html=1;fillColor=#fad9d5;strokeColor=#ae4132;" parent="qBCkmrOF__fB7yVJp3Rr-40" vertex="1">
            <mxGeometry x="40" y="150" width="120" height="60" as="geometry" />
          </mxCell>
        </object>
        <object label="&lt;div&gt;117-Somvilla&lt;/div&gt;&lt;div&gt;(%subnet%12)&lt;/div&gt;" placeholders="1" id="qBCkmrOF__fB7yVJp3Rr-21">
          <mxCell style="rounded=0;whiteSpace=wrap;html=1;fillColor=#fad9d5;strokeColor=#ae4132;" parent="qBCkmrOF__fB7yVJp3Rr-40" vertex="1">
            <mxGeometry x="40" y="210" width="120" height="60" as="geometry" />
          </mxCell>
        </object>
        <mxCell id="CJNbvoDMB4cZCmzuY-xy-14" style="edgeStyle=orthogonalEdgeStyle;rounded=0;orthogonalLoop=1;jettySize=auto;html=1;exitX=1;exitY=0.5;exitDx=0;exitDy=0;entryX=0;entryY=0.5;entryDx=0;entryDy=0;" edge="1" parent="1" source="qBCkmrOF__fB7yVJp3Rr-65" target="CJNbvoDMB4cZCmzuY-xy-4">
          <mxGeometry relative="1" as="geometry" />
        </mxCell>
        <mxCell id="qBCkmrOF__fB7yVJp3Rr-65" value="" style="ellipse;whiteSpace=wrap;html=1;container=1;collapsible=0;" parent="1" vertex="1">
          <mxGeometry x="110" y="70" width="160" height="120" as="geometry" />
        </mxCell>
        <mxCell id="qBCkmrOF__fB7yVJp3Rr-67" value="&lt;div&gt;BT Hub&lt;/div&gt;&lt;div&gt;(192.168.1.0/24)&lt;/div&gt;" style="image;html=1;image=img/lib/clip_art/networking/Wireless_Router_128x128.png" parent="qBCkmrOF__fB7yVJp3Rr-65" vertex="1">
          <mxGeometry x="50" y="15" width="60" height="50" as="geometry" />
        </mxCell>
        <mxCell id="CJNbvoDMB4cZCmzuY-xy-38" style="edgeStyle=orthogonalEdgeStyle;rounded=0;orthogonalLoop=1;jettySize=auto;html=1;exitX=0.5;exitY=1;exitDx=0;exitDy=0;entryX=0;entryY=0.25;entryDx=0;entryDy=0;dashed=1;strokeColor=light-dark(#000000,#FF0000);" edge="1" parent="1" source="qBCkmrOF__fB7yVJp3Rr-76" target="qBCkmrOF__fB7yVJp3Rr-40">
          <mxGeometry relative="1" as="geometry" />
        </mxCell>
        <mxCell id="qBCkmrOF__fB7yVJp3Rr-76" value="" style="ellipse;whiteSpace=wrap;html=1;container=1;collapsible=0;" parent="1" vertex="1">
          <mxGeometry x="720" y="570" width="160" height="120" as="geometry" />
        </mxCell>
        <mxCell id="qBCkmrOF__fB7yVJp3Rr-75" value="&lt;div&gt;&lt;br&gt;&lt;/div&gt;&lt;div&gt;&lt;br&gt;&lt;/div&gt;&lt;div&gt;&lt;br&gt;&lt;/div&gt;&lt;div&gt;&lt;br&gt;&lt;/div&gt;&lt;div&gt;&lt;br&gt;&lt;/div&gt;&lt;div&gt;Cloudflare Tunnel&lt;/div&gt;" style="points=[];aspect=fixed;html=1;align=center;shadow=0;dashed=0;fillColor=#FF6A00;strokeColor=none;shape=mxgraph.alibaba_cloud.clouddev;" parent="qBCkmrOF__fB7yVJp3Rr-76" vertex="1">
          <mxGeometry x="51.64999999999998" y="19.75" width="56.699999999999996" height="40.5" as="geometry" />
        </mxCell>
        <mxCell id="CJNbvoDMB4cZCmzuY-xy-3" value="VLAN50 - Sandbox (10.50.50.1)&amp;nbsp;" style="swimlane;whiteSpace=wrap;html=1;rounded=1;collapsible=0;fillColor=#bac8d3;strokeColor=#23445d;" vertex="1" parent="1">
          <mxGeometry x="1250" y="770" width="200" height="280" as="geometry" />
        </mxCell>
        <mxCell id="CJNbvoDMB4cZCmzuY-xy-47" value="&lt;div&gt;131-Archie-vm&lt;/div&gt;&lt;div&gt;&lt;br&gt;&lt;/div&gt;" style="rounded=0;whiteSpace=wrap;html=1;" vertex="1" parent="CJNbvoDMB4cZCmzuY-xy-3">
          <mxGeometry x="40" y="30" width="120" height="60" as="geometry" />
        </mxCell>
        <mxCell id="CJNbvoDMB4cZCmzuY-xy-8" style="edgeStyle=orthogonalEdgeStyle;rounded=0;orthogonalLoop=1;jettySize=auto;html=1;exitX=0.5;exitY=1;exitDx=0;exitDy=0;entryX=0.5;entryY=0;entryDx=0;entryDy=0;" edge="1" parent="1" source="CJNbvoDMB4cZCmzuY-xy-4" target="qBCkmrOF__fB7yVJp3Rr-2">
          <mxGeometry relative="1" as="geometry" />
        </mxCell>
        <mxCell id="CJNbvoDMB4cZCmzuY-xy-4" value="" style="ellipse;whiteSpace=wrap;html=1;container=1;collapsible=0;" vertex="1" parent="1">
          <mxGeometry x="460" y="70" width="160" height="120" as="geometry" />
        </mxCell>
        <mxCell id="qBCkmrOF__fB7yVJp3Rr-68" value="&lt;div&gt;Proxmox&lt;/div&gt;&lt;div&gt;(192.168.1.232:8006)&lt;/div&gt;" style="image;html=1;image=img/lib/clip_art/computers/Server_128x128.png" parent="CJNbvoDMB4cZCmzuY-xy-4" vertex="1">
          <mxGeometry x="55.895714285714256" y="10" width="48.214285714285715" height="48.48" as="geometry" />
        </mxCell>
        <mxCell id="CJNbvoDMB4cZCmzuY-xy-37" style="edgeStyle=orthogonalEdgeStyle;rounded=0;orthogonalLoop=1;jettySize=auto;html=1;exitX=0;exitY=0.5;exitDx=0;exitDy=0;entryX=0.5;entryY=0;entryDx=0;entryDy=0;dashed=1;strokeColor=light-dark(#000000,#FF0000);" edge="1" parent="1" source="qBCkmrOF__fB7yVJp3Rr-10" target="qBCkmrOF__fB7yVJp3Rr-76">
          <mxGeometry relative="1" as="geometry" />
        </mxCell>
        <mxCell id="CJNbvoDMB4cZCmzuY-xy-41" style="edgeStyle=orthogonalEdgeStyle;rounded=0;orthogonalLoop=1;jettySize=auto;html=1;exitX=0.5;exitY=1;exitDx=0;exitDy=0;entryX=0.171;entryY=-0.015;entryDx=0;entryDy=0;entryPerimeter=0;" edge="1" parent="1" source="qBCkmrOF__fB7yVJp3Rr-65" target="qBCkmrOF__fB7yVJp3Rr-79">
          <mxGeometry relative="1" as="geometry" />
        </mxCell>
        <mxCell id="CJNbvoDMB4cZCmzuY-xy-46" value="Somvilla&amp;nbsp; Home Lab" style="text;html=1;align=center;verticalAlign=middle;whiteSpace=wrap;rounded=0;fontSize=20;" vertex="1" parent="1">
          <mxGeometry x="740" y="20" width="220" height="20" as="geometry" />
        </mxCell>
        <mxCell id="qBCkmrOF__fB7yVJp3Rr-60" value="&lt;div&gt;&lt;br&gt;&lt;/div&gt;&lt;div&gt;&lt;br&gt;&lt;/div&gt;&lt;div&gt;&lt;br&gt;&lt;/div&gt;&lt;div&gt;&lt;br&gt;&lt;/div&gt;&lt;div&gt;&lt;br&gt;&lt;/div&gt;&lt;div&gt;&lt;br&gt;&lt;/div&gt;&lt;div&gt;Tailscale&lt;/div&gt;" style="points=[];aspect=fixed;html=1;align=center;shadow=0;dashed=0;fillColor=#FF6A00;strokeColor=none;shape=mxgraph.alibaba_cloud.vpn_gateway;" parent="1" vertex="1">
          <mxGeometry x="512.5500000000001" y="580" width="54.900000000000006" height="54.900000000000006" as="geometry" />
        </mxCell>
        <mxCell id="CJNbvoDMB4cZCmzuY-xy-48" style="edgeStyle=orthogonalEdgeStyle;rounded=0;orthogonalLoop=1;jettySize=auto;html=1;exitX=0.5;exitY=1;exitDx=0;exitDy=0;entryX=0.67;entryY=-0.004;entryDx=0;entryDy=0;entryPerimeter=0;" edge="1" parent="1" source="qBCkmrOF__fB7yVJp3Rr-2" target="qBCkmrOF__fB7yVJp3Rr-79">
          <mxGeometry relative="1" as="geometry" />
        </mxCell>
      </root>
    </mxGraphModel>
  </diagram>
</mxfile>
